<?xml version="1.0" standalone="no"?>
<!DOCTYPE svg PUBLIC "-//W3C//DTD SVG 20010904//EN"
 "http://www.w3.org/TR/2001/REC-SVG-20010904/DTD/svg10.dtd">
<svg version="1.0" xmlns="http://www.w3.org/2000/svg"
 width="225.000000pt" height="225.000000pt" viewBox="0 0 225.000000 225.000000"
 preserveAspectRatio="xMidYMid meet">
<metadata>
Created by potrace 1.14, written by Peter Selinger 2001-2017
</metadata>
<g transform="translate(0.000000,225.000000) scale(0.100000,-0.100000)"
fill="#000000" stroke="none">
<path d="M337 1884 c-4 -4 -7 -43 -7 -86 l0 -78 120 0 119 0 3 -504 3 -504 30
-43 c18 -26 50 -53 80 -68 47 -25 57 -26 252 -29 l203 -3 0 421 0 421 211 -3
c208 -3 211 -3 230 -27 18 -22 19 -43 19 -310 0 -224 -3 -291 -13 -305 -8 -11
-33 -22 -62 -26 -91 -14 -85 -36 -85 286 l0 284 -100 0 -100 0 0 -371 0 -371
198 4 c214 4 240 9 298 66 61 61 64 76 64 428 0 214 -4 332 -11 355 -18 51
-55 97 -102 122 -41 21 -51 22 -394 25 l-353 3 0 -415 c0 -471 8 -433 -88
-417 -29 4 -59 14 -65 20 -9 9 -13 158 -17 569 l-5 557 -211 3 c-115 1 -213
-1 -217 -4z"/>
<path d="M873 520 c-38 -23 -53 -48 -53 -90 0 -65 43 -109 107 -110 116 0 154
154 50 203 -45 22 -65 21 -104 -3z"/>
<path d="M1408 524 c-50 -26 -72 -98 -47 -147 20 -39 51 -57 99 -57 89 0 136
81 95 160 -28 54 -94 74 -147 44z"/>
</g>
</svg>
